{"accessors":[{"bufferView":2,"componentType":5126,"count":1302,"max":[2.3796629905700684,3.2886040210723877,2.175128936767578],"min":[-2.381072998046875,-0.521776020526886,-1.4393310546875],"type":"VEC3"},{"bufferView":2,"byteOffset":15624,"componentType":5126,"count":1302,"max":[0.9986606240272522,0.9925100803375244,0.9999830722808838],"min":[-0.9978963136672974,-0.9999297857284546,-0.9999918937683105],"type":"VEC3"},{"bufferView":1,"componentType":5126,"count":1302,"max":[0.9970219731330872,0.9981449842453003],"min":[0.00177800003439188,0.0017790000420063734],"type":"VEC2"},{"bufferView":0,"componentType":5125,"count":4554,"type":"SCALAR"},{"bufferView":2,"byteOffset":31248,"componentType":5126,"count":1247,"max":[2.409492015838623,3.3183789253234863,2.202003002166748],"min":[-2.4108989238739014,-0.551522970199585,-1.468135952949524],"type":"VEC3"},{"bufferView":2,"byteOffset":46212,"componentType":5126,"count":1247,"max":[0.9981542825698853,0.9996387362480164,0.9999957084655762],"min":[-0.9988036751747131,-0.9946760535240173,-0.9999690055847168],"type":"VEC3"},{"bufferView":1,"byteOffset":10416,"componentType":5126,"count":1247,"max":[0.9970219731330872,0.9981449842453003],"min":[0.00177800003439188,0.0017790000420063734],"type":"VEC2"},{"bufferView":0,"byteOffset":18216,"componentType":5125,"count":4392,"type":"SCALAR"}],"asset":{"extras":{"author":"alen60303 (https://sketchfab.com/alen60303)","license":"CC-BY-4.0 (http://creativecommons.org/licenses/by/4.0/)","source":"https://sketchfab.com/3d-models/mantabu-d28be63329b543829ae2b0369a27734f","title":"Mantabu"},"generator":"Sketchfab-11.53.2","version":"2.0"},"bufferViews":[{"buffer":0,"byteLength":35784,"name":"floatBufferViews","target":34963},{"buffer":0,"byteLength":20392,"byteOffset":35784,"byteStride":8,"name":"floatBufferViews","target":34962},{"buffer":0,"byteLength":61176,"byteOffset":56176,"byteStride":12,"name":"floatBufferViews","target":34962}],"buffers":[{"byteLength":117352,"uri":"data:application/octet-stream;base64,"}],"images":[{"uri":"data:application/octet-stream;base64,"}],"materials":[{"name":"GenshinMaterial.Default.001","pbrMetallicRoughness":{"baseColorTexture":{"index":0},"metallicFactor":0}},{"name":"OH_Outline_Material.001","pbrMetallicRoughness":{"baseColorFactor":[0,0,0,1],"metallicFactor":0,"roughnessFactor":0.7880318375580224}}],"meshes":[{"name":"Object_0","primitives":[{"attributes":{"NORMAL":1,"POSITION":0,"TEXCOORD_0":2},"indices":3,"material":0,"mode":4}]},{"name":"Object_1","primitives":[{"attributes":{"NORMAL":5,"POSITION":4,"TEXCOORD_0":6},"indices":7,"material":1,"mode":4}]}],"nodes":[{"children":[1],"matrix":[1,0,0,0,0,2.220446049250313e-16,-1,0,0,1,2.220446049250313e-16,0,0,0,0,1],"name":"Sketchfab_model"},{"children":[2,3],"name":"Montabu02.obj.cleaner.materialmerger.gles"},{"mesh":0,"name":"Object_2"},{"mesh":1,"name":"Object_3"}],"samplers":[{"magFilter":9729,"minFilter":9987,"wrapS":10497,"wrapT":10497}],"scene":0,"scenes":[{"name":"Sketchfab_Scene","nodes":[0]}],"textures":[{"sampler":0,"source":0}]}